<svg width="current" height="current" viewBox="0 0 24 24" fill="none" xmlns="http://www.w3.org/2000/svg">
<path d="M9.55061 17.5754C9.41728 17.5754 9.29228 17.5544 9.17561 17.5124C9.05894 17.4711 8.95061 17.4004 8.85061 17.3004L4.55061 13.0004C4.36728 12.8171 4.27961 12.5794 4.28761 12.2874C4.29628 11.9961 4.39228 11.7587 4.57561 11.5754C4.75894 11.3921 4.99228 11.3004 5.27561 11.3004C5.55894 11.3004 5.79228 11.3921 5.97561 11.5754L9.55061 15.1504L18.0256 6.67539C18.2089 6.49206 18.4466 6.40039 18.7386 6.40039C19.0299 6.40039 19.2673 6.49206 19.4506 6.67539C19.6339 6.85872 19.7256 7.09606 19.7256 7.38739C19.7256 7.67939 19.6339 7.91706 19.4506 8.10039L10.2506 17.3004C10.1506 17.4004 10.0423 17.4711 9.92561 17.5124C9.80894 17.5544 9.68394 17.5754 9.55061 17.5754Z" fill="black"/>
</svg>
