<svg width="current" height="current" viewBox="0 0 12 12" fill="none" xmlns="http://www.w3.org/2000/svg">
<path d="M10.8819 0.0420551C10.6969 0.0983667 10.5078 0.275344 8.33987 2.44333L5.99492 4.78426L3.654 2.44333C1.0999 -0.102745 1.21252 -0.00621128 0.766055 0.0259666C0.343724 0.0581446 0.0420583 0.359812 0.00988062 0.782146C-0.022297 1.22861 -0.11883 1.11599 2.43125 3.67011L4.76815 6.01104L2.46745 8.31578C0.709744 10.0695 0.146636 10.6607 0.0863025 10.7975C-0.239496 11.5215 0.484501 12.2455 1.2085 11.9197C1.34525 11.8594 1.93652 11.2963 3.69422 9.53854L5.99492 7.23782L8.29964 9.53854C10.0533 11.2963 10.6446 11.8594 10.7813 11.9197C11.5053 12.2455 12.2293 11.5215 11.9035 10.7975C11.8432 10.6607 11.2801 10.0695 9.5224 8.31578L7.22169 6.01104L9.55859 3.67011C11.4732 1.7515 11.9076 1.29699 11.9518 1.16426C12.177 0.460367 11.5777 -0.171123 10.8819 0.0420551Z" fill="white"/>
</svg>
