<svg width="currnet" height="currnet" viewBox="0 0 36 36" fill="none" xmlns="http://www.w3.org/2000/svg">
<rect width="36" height="36" fill="white"/>
<path d="M8.22222 26C7.87593 26 7.58585 25.88 7.352 25.64C7.11733 25.4008 7 25.1042 7 24.75C7 24.3958 7.11733 24.0992 7.352 23.86C7.58585 23.62 7.87593 23.5 8.22222 23.5H27.7778C28.1241 23.5 28.4141 23.62 28.648 23.86C28.8827 24.0992 29 24.3958 29 24.75C29 25.1042 28.8827 25.4008 28.648 25.64C28.4141 25.88 28.1241 26 27.7778 26H8.22222ZM8.22222 19.75C7.87593 19.75 7.58585 19.63 7.352 19.39C7.11733 19.1508 7 18.8542 7 18.5C7 18.1458 7.11733 17.8487 7.352 17.6087C7.58585 17.3696 7.87593 17.25 8.22222 17.25H27.7778C28.1241 17.25 28.4141 17.3696 28.648 17.6087C28.8827 17.8487 29 18.1458 29 18.5C29 18.8542 28.8827 19.1508 28.648 19.39C28.4141 19.63 28.1241 19.75 27.7778 19.75H8.22222ZM8.22222 13.5C7.87593 13.5 7.58585 13.3804 7.352 13.1412C7.11733 12.9012 7 12.6042 7 12.25C7 11.8958 7.11733 11.5988 7.352 11.3588C7.58585 11.1196 7.87593 11 8.22222 11H27.7778C28.1241 11 28.4141 11.1196 28.648 11.3588C28.8827 11.5988 29 11.8958 29 12.25C29 12.6042 28.8827 12.9012 28.648 13.1412C28.4141 13.3804 28.1241 13.5 27.7778 13.5H8.22222Z" fill="black"/>
</svg>
