<svg width="current" height="current" viewBox="0 0 26 26" fill="none" xmlns="http://www.w3.org/2000/svg">
<path d="M11.8335 3.66628H3.66683C3.04799 3.66628 2.4545 3.91211 2.01691 4.3497C1.57933 4.78728 1.3335 5.38077 1.3335 5.99961V22.3329C1.3335 22.9518 1.57933 23.5453 2.01691 23.9829C2.4545 24.4204 3.04799 24.6663 3.66683 24.6663H20.0002C20.619 24.6663 21.2125 24.4204 21.6501 23.9829C22.0877 23.5453 22.3335 22.9518 22.3335 22.3329V14.1663" fill="white"/>
<path d="M20.5835 1.91628C21.0476 1.45215 21.6771 1.19141 22.3335 1.19141C22.9899 1.19141 23.6194 1.45215 24.0835 1.91628C24.5476 2.38041 24.8084 3.0099 24.8084 3.66628C24.8084 4.32266 24.5476 4.95215 24.0835 5.41628L13.0002 16.4996L8.3335 17.6663L9.50016 12.9996L20.5835 1.91628Z" fill="white"/>
<path d="M11.8335 3.66628H3.66683C3.04799 3.66628 2.4545 3.91211 2.01691 4.3497C1.57933 4.78728 1.3335 5.38077 1.3335 5.99961V22.3329C1.3335 22.9518 1.57933 23.5453 2.01691 23.9829C2.4545 24.4204 3.04799 24.6663 3.66683 24.6663H20.0002C20.619 24.6663 21.2125 24.4204 21.6501 23.9829C22.0877 23.5453 22.3335 22.9518 22.3335 22.3329V14.1663M20.5835 1.91628C21.0476 1.45215 21.6771 1.19141 22.3335 1.19141C22.9899 1.19141 23.6194 1.45215 24.0835 1.91628C24.5476 2.38041 24.8084 3.0099 24.8084 3.66628C24.8084 4.32266 24.5476 4.95215 24.0835 5.41628L13.0002 16.4996L8.3335 17.6663L9.50016 12.9996L20.5835 1.91628Z" stroke="#FF8BA7" stroke-width="1.6" stroke-linecap="round" stroke-linejoin="round"/>
</svg>
