<?xml version="1.0" standalone="no"?>
<!DOCTYPE svg PUBLIC "-//W3C//DTD SVG 20010904//EN"
 "http://www.w3.org/TR/2001/REC-SVG-20010904/DTD/svg10.dtd">
<svg version="1.0" xmlns="http://www.w3.org/2000/svg"
 width="260.000000pt" height="260.000000pt" viewBox="0 0 260.000000 260.000000"
 preserveAspectRatio="xMidYMid meet">
<metadata>
Created by potrace 1.14, written by Peter Selinger 2001-2017
</metadata>
<g transform="translate(0.000000,260.000000) scale(0.100000,-0.100000)"
fill="#000000" stroke="none">
<path d="M1705 2425 c-138 -30 -264 -99 -333 -181 -20 -24 -39 -44 -42 -44 -4
0 -14 24 -23 53 -10 28 -30 75 -45 102 -26 48 -29 50 -73 53 -38 2 -50 -1 -72
-24 -15 -15 -27 -35 -27 -45 0 -10 23 -44 51 -76 84 -95 84 -95 -8 -87 -43 4
-84 8 -91 9 -32 4 -152 -17 -212 -36 -381 -126 -644 -477 -667 -890 -20 -362
146 -676 456 -865 153 -94 303 -136 466 -133 55 1 143 -2 196 -6 314 -25 651
143 835 417 102 153 152 303 161 484 8 165 -21 318 -85 454 -67 140 -210 313
-319 386 -63 42 -72 54 -40 54 34 0 152 37 207 65 100 51 215 159 203 191 -10
26 -135 87 -226 111 -102 26 -216 29 -312 8z m310 -44 c39 -10 99 -32 134 -50
l63 -32 -28 -31 c-45 -46 -155 -115 -230 -144 -95 -36 -204 -38 -336 -5 -86
22 -105 24 -177 15 -79 -9 -81 -9 -59 9 119 94 376 160 611 156 98 -1 124 4
97 21 -26 16 -118 23 -213 16 -179 -13 -337 -56 -447 -120 -70 -41 -69 -25 4
42 99 91 288 156 431 147 44 -3 112 -13 150 -24z m-807 -13 c-3 -7 -19 -21
-37 -32 -28 -16 -34 -17 -42 -5 -6 10 -2 19 12 32 25 20 73 23 67 5z m-24
-237 c36 -9 76 -36 65 -44 -2 -2 -36 -25 -76 -51 -86 -56 -180 -156 -227 -240
-72 -131 -52 -146 28 -22 136 207 311 317 504 317 151 -1 290 -53 414 -155 58
-49 158 -156 158 -171 0 -3 8 -15 18 -26 25 -27 94 -161 120 -234 26 -72 52
-218 52 -291 0 -246 -102 -488 -274 -651 -88 -84 -135 -117 -243 -171 -125
-63 -206 -83 -363 -89 -121 -5 -142 -3 -200 17 -36 12 -84 36 -106 53 -79 61
-148 189 -174 324 -16 80 -40 87 -40 13 0 -107 69 -260 157 -348 l62 -63 -52
6 c-331 39 -636 274 -750 576 -108 287 -57 649 126 894 148 199 342 327 554
365 54 10 187 5 247 -9z"/>
<path d="M1720 2240 c8 -6 24 -15 35 -21 16 -8 15 -6 -4 10 -13 12 -28 21 -35
21 -6 0 -4 -5 4 -10z"/>
<path d="M633 1860 c-31 -14 -43 -25 -43 -41 0 -23 1 -23 75 4 27 10 40 21 40
33 0 26 -23 27 -72 4z"/>
<path d="M1325 1840 c-9 -15 4 -30 25 -30 10 0 32 -11 48 -25 36 -30 52 -32
52 -6 0 43 -105 94 -125 61z"/>
<path d="M549 1630 c-100 -54 -103 -226 -5 -273 46 -22 71 -21 122 2 99 45
111 207 19 267 -39 25 -95 27 -136 4z m82 -30 c42 -23 10 -90 -43 -90 -62 0
-45 86 20 99 2 1 12 -4 23 -9z"/>
<path d="M1252 1620 c-18 -11 -41 -34 -52 -52 -61 -100 -19 -210 91 -239 41
-11 50 -10 90 9 65 32 84 64 84 139 0 47 -5 68 -21 90 -52 70 -129 91 -192 53z
m92 -36 c21 -21 20 -40 -4 -64 -24 -24 -85 -27 -94 -5 -8 21 9 61 31 74 26 15
49 13 67 -5z"/>
<path d="M886 1413 c-22 -12 -34 -13 -47 -5 -30 19 -42 -10 -37 -81 12 -143
106 -220 187 -152 41 35 63 97 59 170 l-3 60 -33 -3 c-19 -2 -44 4 -57 12 -29
19 -32 19 -69 -1z m97 -50 c28 -5 29 -7 22 -52 -7 -50 -31 -98 -56 -114 -39
-25 -99 52 -99 126 0 30 4 36 33 45 17 6 41 8 52 5 11 -3 33 -7 48 -10z"/>
<path d="M330 1289 c-36 -33 -60 -59 -54 -57 15 4 128 108 123 113 -3 2 -34
-23 -69 -56z"/>
<path d="M383 1281 c-32 -27 -71 -63 -88 -81 l-30 -33 30 21 c41 30 162 142
153 142 -4 0 -33 -22 -65 -49z"/>
<path d="M391 1235 c-41 -36 -81 -75 -90 -88 -8 -12 18 7 58 43 40 36 85 75
100 87 14 12 21 22 16 23 -6 0 -44 -29 -84 -65z"/>
<path d="M1403 1234 l-68 -66 73 62 c39 35 72 65 72 66 0 11 -16 -2 -77 -62z"/>
<path d="M1420 1200 c-52 -49 -90 -89 -85 -89 6 0 53 40 105 89 52 50 90 90
85 90 -6 0 -53 -40 -105 -90z"/>
<path d="M409 1189 c-104 -101 -94 -101 16 0 63 58 93 91 82 91 -2 0 -46 -41
-98 -91z"/>
<path d="M1460 1179 c-58 -56 -96 -96 -85 -90 28 14 212 190 200 190 -5 0 -57
-45 -115 -100z"/>
<path d="M1522 1171 c-48 -43 -96 -89 -107 -101 l-20 -23 20 11 c26 15 212
191 202 192 -4 0 -47 -35 -95 -79z"/>
<path d="M443 1162 c-62 -58 -83 -82 -70 -82 1 0 36 34 77 75 41 41 72 75 70
75 -3 0 -38 -31 -77 -68z"/>
<path d="M1540 1119 c-47 -45 -67 -67 -45 -50 63 48 151 130 140 130 -5 0 -48
-36 -95 -80z"/>
<path d="M475 1128 l-40 -43 43 40 c23 21 42 40 42 42 0 8 -9 0 -45 -39z"/>
<path d="M1585 1088 l-50 -51 58 47 c31 27 57 50 57 52 0 14 -22 -3 -65 -48z"/>
</g>
</svg>
